<svg width="64" height="64" viewBox="0 0 64 64" fill="none" xmlns="http://www.w3.org/2000/svg">
<path d="M48.5376 59.1955C48.3337 59.4533 48.0726 59.6602 47.7748 59.7997C47.477 59.9393 47.1508 60.0076 46.8219 59.9993H17.1687C16.847 60.0011 16.5291 59.9296 16.2392 59.7903C15.9492 59.651 15.6949 59.4476 15.4954 59.1955C15.2864 58.9467 15.1376 58.6532 15.0605 58.3377C14.9833 58.0222 14.98 57.6933 15.0506 57.3763L21.8285 30.5747C20.3514 29.1971 19.1751 27.5296 18.3733 25.6769C17.5714 23.8241 17.1614 21.8259 17.1687 19.8075C17.1687 15.8803 18.7308 12.114 21.5113 9.33702C24.2918 6.56007 28.063 5 31.9953 5C35.9276 5 39.6988 6.56007 42.4793 9.33702C45.2598 12.114 46.8219 15.8803 46.8219 19.8075C46.8293 21.8259 46.4192 23.8241 45.6173 25.6769C44.8155 27.5296 43.6392 29.1971 42.1621 30.5747L48.94 57.3763C49.0164 57.6901 49.0199 58.0172 48.9501 58.3325C48.8804 58.6479 48.7392 58.9431 48.5376 59.1955Z" fill="black"/>
</svg>
