<svg width="43" height="66" viewBox="0 0 43 66" fill="none" xmlns="http://www.w3.org/2000/svg">
<path d="M39.4968 62.1224C39.275 62.4036 38.9907 62.6293 38.6667 62.7815C38.3426 62.9337 37.9876 63.0083 37.6297 62.9993H5.36005C5.00994 63.0012 4.664 62.9232 4.34849 62.7712C4.03298 62.6193 3.75618 62.3974 3.53912 62.1224C3.31169 61.851 3.14973 61.5308 3.06579 61.1866C2.98185 60.8425 2.97818 60.4836 3.05507 60.1378L10.431 30.8997C8.8236 29.3968 7.5435 27.5778 6.67092 25.5566C5.79834 23.5354 5.35206 21.3555 5.36005 19.1537C5.36005 14.8694 7.05997 10.7607 10.0858 7.73129C13.1117 4.7019 17.2157 3 21.4949 3C25.7741 3 29.8781 4.7019 32.904 7.73129C35.9298 10.7607 37.6297 14.8694 37.6297 19.1537C37.6377 21.3555 37.1915 23.5354 36.3189 25.5566C35.4463 27.5778 34.1662 29.3968 32.5588 30.8997L39.9347 60.1378C40.0179 60.4801 40.0216 60.8369 39.9457 61.1809C39.8698 61.5249 39.7162 61.847 39.4968 62.1224Z" fill="#121212" stroke="#F1F1F1" stroke-width="5"/>
</svg>
